<svg width="148" height="49" viewBox="0 0 148 49" fill="none" xmlns="http://www.w3.org/2000/svg">
<path d="M44.0177 8.78467L36.293 10.4459L34.5487 21.6591H49.0844C50.214 22.2571 49.555 23.0158 49.0844 23.3203H34.2165L33.8842 26.5597H38.1203C39.25 27.2906 38.591 27.9717 38.1203 28.2209H33.552L32.3891 35.9456H35.2132C36.077 36.6765 35.5731 37.413 35.2132 37.6898H32.14L31.8077 39.6833C34.5321 43.0722 31.7247 44.9161 29.9804 45.4145H28.4022C29.4654 47.7402 27.7377 48.5431 26.741 48.6539C24.3488 48.4545 24.526 46.4112 24.9137 45.4145H15.777C16.7737 47.8731 15.0294 48.5985 14.0327 48.6539C11.6405 48.1887 11.9285 46.3005 12.3715 45.4145H10.7103C9.24839 44.4178 10.1011 43.5041 10.7103 43.1719H29.5651C31.4256 42.4409 30.3403 41.2615 29.5651 40.7631H8.79986C8.33472 40.7631 7.99694 40.154 7.88619 39.8494L0.0784644 20.164C-0.253779 19.1008 0.549142 18.6135 0.992134 18.5028H32.7214L33.9673 9.94752C35.4292 5.8277 41.5535 5.18536 44.433 5.37917C45.3632 5.57852 45.3743 6.29284 45.2636 6.62508L44.7652 8.20324C44.6323 8.53548 44.2115 8.72929 44.0177 8.78467Z" fill="white"/>
<path d="M29.8143 38.4373H23.8339L31.5585 25.9782L29.8143 38.4373Z" fill="#284B63"/>
<path d="M21.0929 38.4373H16.2753L26.9902 20.9115H31.8908L21.0929 38.4373Z" fill="#284B63"/>
<path d="M24.3322 20.9115H19.3486L9.38128 37.1084L9.79659 38.4373H13.4513L24.3322 20.9115Z" fill="#284B63"/>
<path d="M16.4415 20.9115H11.6239L6.22497 29.6329L8.21843 34.2012L16.4415 20.9115Z" fill="#284B63"/>
<path d="M8.96598 20.9115H2.9856L5.3113 26.8088L8.96598 20.9115Z" fill="#284B63"/>
<path d="M49.1674 30.8788H36.293C35.1633 31.5433 35.8223 32.2631 36.293 32.54H49.1674C50.0977 31.8755 49.555 31.1557 49.1674 30.8788Z" fill="white"/>
<path d="M57.1413 26.975H43.9346C42.6721 27.7059 43.4085 28.387 43.9346 28.6362H57.1413C58.2709 27.9053 57.6119 27.2242 57.1413 26.975Z" fill="white"/>
<path d="M39.1171 36.0286H38.1203C37.1901 36.5602 37.7327 37.3022 38.1203 37.6067H39.1171C40.1138 36.8758 39.5324 36.2501 39.1171 36.0286Z" fill="white"/>
<path d="M28.8175 10.612C34.0005 12.9377 32.3614 16.7862 30.894 18.4197H3.06865C-0.586026 13.4361 3.31783 11.1381 5.7266 10.612C5.14517 9.75372 4.51391 7.55537 6.64026 5.62836C8.76662 3.70135 11.1809 4.82544 12.1223 5.62836C12.5376 3.6349 16.9398 -1.59793 23.4186 0.478587C28.6016 2.1398 29.1774 7.92638 28.8175 10.612Z" fill="#D9D9D9"/>
<path d="M69.17 13.645C69.17 12.845 68.9 12.23 68.36 11.8L67.16 10.915C66.26 10.275 65.81 9.33 65.81 8.08C65.81 7.04 66.005 6.315 66.395 5.905C66.795 5.485 67.335 5.275 68.015 5.275C68.705 5.275 69.24 5.47 69.62 5.86C70 6.24 70.23 6.935 70.31 7.945L69.17 8.2C69.13 6.92 68.755 6.28 68.045 6.28C67.345 6.28 66.995 6.825 66.995 7.915C66.995 8.395 67.045 8.785 67.145 9.085C67.255 9.385 67.46 9.655 67.76 9.895L68.945 10.78C69.225 10.98 69.45 11.17 69.62 11.35C69.79 11.53 69.95 11.82 70.1 12.22C70.26 12.61 70.34 13.075 70.34 13.615C70.34 14.575 70.13 15.25 69.71 15.64C69.3 16.03 68.74 16.225 68.03 16.225C67.32 16.225 66.765 15.995 66.365 15.535C65.965 15.075 65.72 14.255 65.63 13.075L66.755 12.88C66.795 13.73 66.915 14.335 67.115 14.695C67.325 15.055 67.615 15.235 67.985 15.235C68.775 15.235 69.17 14.705 69.17 13.645ZM74.7416 7.9H75.8816V16H75.1766L74.9366 15.01C74.7066 15.82 74.2216 16.225 73.4816 16.225C72.9316 16.225 72.5166 16.055 72.2366 15.715C71.9566 15.375 71.8166 14.725 71.8166 13.765V7.9H72.9566V13.855C72.9566 14.405 73.0216 14.78 73.1516 14.98C73.2916 15.18 73.4966 15.28 73.7666 15.28C74.3766 15.28 74.7016 14.795 74.7416 13.825V7.9ZM77.7809 7.9H78.4859L78.7859 9.205C79.0159 8.185 79.5259 7.675 80.3159 7.675C80.8459 7.675 81.2509 7.9 81.5309 8.35C81.8109 8.8 81.9509 9.625 81.9509 10.825V13.075C81.9509 14.275 81.8109 15.1 81.5309 15.55C81.2509 16 80.8459 16.225 80.3159 16.225C79.5859 16.225 79.1059 15.755 78.8759 14.815V18.7H77.7809V7.9ZM78.8759 11.95C78.8759 12.85 78.9309 13.56 79.0409 14.08C79.1609 14.6 79.2959 14.935 79.4459 15.085C79.5959 15.225 79.7959 15.295 80.0459 15.295C80.5859 15.295 80.8559 14.675 80.8559 13.435V10.465C80.8559 9.225 80.5909 8.605 80.0609 8.605C79.8309 8.605 79.6359 8.675 79.4759 8.815C79.3259 8.955 79.1909 9.265 79.0709 9.745C78.9509 10.225 78.8859 10.89 78.8759 11.74V11.95ZM85.2757 16H83.9557V7.96H85.2757V16ZM86.8357 5.845V6.91H82.3807V5.845H86.8357ZM88.9179 16.225C88.3979 16.225 87.9929 16 87.7029 15.55C87.4229 15.09 87.2829 14.265 87.2829 13.075V10.825C87.2829 9.635 87.4229 8.815 87.7029 8.365C87.9929 7.905 88.3979 7.675 88.9179 7.675C89.6379 7.675 90.1279 8.105 90.3879 8.965V4.9H91.4829V16H90.7779L90.4179 14.44C90.2179 15.63 89.7179 16.225 88.9179 16.225ZM90.1779 14.095C90.2879 13.575 90.3429 12.86 90.3429 11.95C90.3429 11.04 90.2829 10.33 90.1629 9.82C90.0529 9.3 89.9179 8.97 89.7579 8.83C89.6079 8.68 89.4079 8.605 89.1579 8.605C88.6479 8.605 88.3929 9.225 88.3929 10.465V13.435C88.3929 14.125 88.4629 14.61 88.6029 14.89C88.7429 15.16 88.9379 15.295 89.1879 15.295C89.4379 15.295 89.6379 15.225 89.7879 15.085C89.9379 14.935 90.0679 14.605 90.1779 14.095ZM97.3719 10.825V13.075C97.3719 14.265 97.1869 15.09 96.8169 15.55C96.4569 16 95.9369 16.225 95.2569 16.225C94.5869 16.225 94.0669 16 93.6969 15.55C93.3369 15.09 93.1569 14.265 93.1569 13.075V10.825C93.1569 9.635 93.3369 8.815 93.6969 8.365C94.0669 7.905 94.5869 7.675 95.2569 7.675C95.9369 7.675 96.4569 7.905 96.8169 8.365C97.1869 8.815 97.3719 9.635 97.3719 10.825ZM96.2169 13.285V10.615C96.2169 9.275 95.9019 8.605 95.2719 8.605C94.6219 8.605 94.2969 9.275 94.2969 10.615V13.285C94.2969 14.625 94.6219 15.295 95.2719 15.295C95.9019 15.295 96.2169 14.625 96.2169 13.285ZM75.5078 31C75.5078 31.8919 75.3516 32.6634 75.0391 33.3145C74.7331 33.959 74.3099 34.4928 73.7695 34.916C73.2357 35.3327 72.6074 35.6419 71.8848 35.8438C71.1686 36.0391 70.3971 36.1367 69.5703 36.1367C69.2513 36.1367 68.8997 36.0944 68.5156 36.0098C68.138 35.9251 67.7539 35.821 67.3633 35.6973C66.9727 35.5671 66.5951 35.4303 66.2305 35.2871C65.8724 35.1374 65.5534 34.9974 65.2734 34.8672L65.7031 31.0391C66.2565 31.3711 66.8685 31.625 67.5391 31.8008C68.2161 31.9701 68.8802 32.0547 69.5312 32.0547C69.6549 32.0547 69.8047 32.0514 69.9805 32.0449C70.1562 32.0319 70.3223 32.0026 70.4785 31.957C70.6413 31.9049 70.778 31.8301 70.8887 31.7324C70.9993 31.6348 71.0547 31.4948 71.0547 31.3125C71.0547 31.1888 71.0156 31.0846 70.9375 31C70.8594 30.9089 70.7585 30.8372 70.6348 30.7852C70.5111 30.7266 70.3711 30.6842 70.2148 30.6582C70.0586 30.6257 69.9056 30.6029 69.7559 30.5898C69.6061 30.5768 69.4661 30.5703 69.3359 30.5703C69.2057 30.5703 69.1016 30.5703 69.0234 30.5703C68.4635 30.5703 67.9525 30.4824 67.4902 30.3066C67.0345 30.1309 66.6406 29.8835 66.3086 29.5645C65.9831 29.2389 65.7292 28.8483 65.5469 28.3926C65.3646 27.9303 65.2734 27.4193 65.2734 26.8594C65.2734 26.0911 65.4264 25.4043 65.7324 24.7988C66.0449 24.1868 66.4583 23.6693 66.9727 23.2461C67.4935 22.8164 68.0892 22.4876 68.7598 22.2598C69.4303 22.0319 70.1237 21.918 70.8398 21.918C71.1589 21.918 71.4876 21.931 71.8262 21.957C72.1647 21.9766 72.5 22.0156 72.832 22.0742C73.1706 22.1328 73.4993 22.2077 73.8184 22.2988C74.1374 22.39 74.4401 22.5039 74.7266 22.6406L74.3555 26.6055C73.9128 26.4557 73.4473 26.332 72.959 26.2344C72.4772 26.1302 72.0052 26.0781 71.543 26.0781C71.4583 26.0781 71.3477 26.0814 71.2109 26.0879C71.0807 26.0879 70.9408 26.0977 70.791 26.1172C70.6478 26.1302 70.5013 26.153 70.3516 26.1855C70.2018 26.2181 70.0684 26.2637 69.9512 26.3223C69.834 26.3743 69.7396 26.446 69.668 26.5371C69.5964 26.6283 69.5638 26.7357 69.5703 26.8594C69.5768 27.0026 69.6289 27.1133 69.7266 27.1914C69.8307 27.2695 69.9609 27.3281 70.1172 27.3672C70.2799 27.3997 70.4557 27.416 70.6445 27.416C70.8398 27.416 71.0319 27.4128 71.2207 27.4062C71.4095 27.3932 71.5853 27.3835 71.748 27.377C71.9108 27.3639 72.0443 27.3607 72.1484 27.3672C72.6693 27.3997 73.138 27.5104 73.5547 27.6992C73.9714 27.888 74.3229 28.1387 74.6094 28.4512C74.9023 28.7637 75.1237 29.138 75.2734 29.5742C75.4297 30.0039 75.5078 30.4792 75.5078 31ZM87.7344 35.6094L82.8516 35.8438L82.8125 31.7227H80.5664L80.4297 36H76.0547L76.4258 22.2695L81.0742 22.4844L80.7812 29.4961H82.9492L82.9688 22.1523L87.4219 22.2695L87.7344 35.6094ZM100.732 28.5195C100.732 29.112 100.664 29.6849 100.527 30.2383C100.391 30.7852 100.192 31.2995 99.9316 31.7812C99.6777 32.263 99.3652 32.7057 98.9941 33.1094C98.6296 33.5065 98.2161 33.8483 97.7539 34.1348C97.2982 34.4212 96.8001 34.6458 96.2598 34.8086C95.7194 34.9648 95.1465 35.043 94.541 35.043C93.9551 35.043 93.3952 34.9681 92.8613 34.8184C92.334 34.6686 91.8392 34.4603 91.377 34.1934C90.9147 33.9199 90.4948 33.5944 90.1172 33.2168C89.7461 32.8327 89.4271 32.4095 89.1602 31.9473C88.8997 31.4785 88.6947 30.9772 88.5449 30.4434C88.4017 29.9095 88.3301 29.3529 88.3301 28.7734C88.3301 28.207 88.3984 27.6536 88.5352 27.1133C88.6719 26.5664 88.8672 26.0521 89.1211 25.5703C89.3815 25.0885 89.694 24.6458 90.0586 24.2422C90.4232 23.8385 90.8301 23.4902 91.2793 23.1973C91.735 22.9043 92.2266 22.6764 92.7539 22.5137C93.2812 22.3509 93.8379 22.2695 94.4238 22.2695C95.3678 22.2695 96.2272 22.416 97.002 22.709C97.7832 23.002 98.4473 23.4219 98.9941 23.9688C99.5475 24.5091 99.974 25.1667 100.273 25.9414C100.579 26.7096 100.732 27.569 100.732 28.5195ZM96.3965 28.7734C96.3965 28.4935 96.3542 28.2233 96.2695 27.9629C96.1914 27.696 96.0742 27.4616 95.918 27.2598C95.7617 27.0514 95.5664 26.8854 95.332 26.7617C95.1042 26.6315 94.8405 26.5664 94.541 26.5664C94.235 26.5664 93.9616 26.6217 93.7207 26.7324C93.4798 26.8431 93.2715 26.9961 93.0957 27.1914C92.9264 27.3802 92.7962 27.6048 92.7051 27.8652C92.6139 28.1191 92.5684 28.3893 92.5684 28.6758C92.5684 28.9492 92.6074 29.2227 92.6855 29.4961C92.7637 29.7695 92.8809 30.0169 93.0371 30.2383C93.1934 30.4596 93.3854 30.6387 93.6133 30.7754C93.8477 30.9121 94.1178 30.9805 94.4238 30.9805C94.7298 30.9805 95.0033 30.9219 95.2441 30.8047C95.4915 30.681 95.6999 30.5182 95.8691 30.3164C96.0384 30.1081 96.1686 29.8704 96.2598 29.6035C96.3509 29.3366 96.3965 29.0599 96.3965 28.7734ZM112.793 26.9961C112.793 27.6276 112.699 28.1875 112.51 28.6758C112.321 29.1641 112.061 29.5938 111.729 29.9648C111.403 30.3294 111.019 30.6387 110.576 30.8926C110.133 31.14 109.658 31.3451 109.15 31.5078C108.649 31.6641 108.128 31.7812 107.588 31.8594C107.048 31.931 106.517 31.9701 105.996 31.9766V36.1367H101.445C101.445 35.3945 101.445 34.6719 101.445 33.9688C101.452 33.2656 101.455 32.569 101.455 31.8789C101.462 31.1823 101.465 30.4824 101.465 29.7793C101.471 29.0762 101.478 28.3503 101.484 27.6016C101.497 26.8073 101.501 26.013 101.494 25.2188C101.488 24.4245 101.504 23.6237 101.543 22.8164C102.376 22.569 103.21 22.3835 104.043 22.2598C104.876 22.1361 105.736 22.0742 106.621 22.0742C107.122 22.0742 107.624 22.1165 108.125 22.2012C108.626 22.2793 109.105 22.4062 109.561 22.582C110.023 22.7578 110.449 22.9792 110.84 23.2461C111.237 23.5065 111.579 23.819 111.865 24.1836C112.152 24.5482 112.376 24.9648 112.539 25.4336C112.708 25.9023 112.793 26.4232 112.793 26.9961ZM108.457 27.3281C108.457 26.9049 108.327 26.5762 108.066 26.3418C107.812 26.1009 107.48 25.9805 107.07 25.9805C106.934 25.9805 106.79 25.9935 106.641 26.0195C106.497 26.0391 106.361 26.0651 106.23 26.0977L106.113 28.9492C106.204 28.9622 106.292 28.9688 106.377 28.9688C106.462 28.9688 106.549 28.9688 106.641 28.9688C106.875 28.9688 107.1 28.9297 107.314 28.8516C107.536 28.7734 107.731 28.6628 107.9 28.5195C108.07 28.3698 108.203 28.1973 108.301 28.002C108.405 27.8001 108.457 27.5755 108.457 27.3281ZM124.727 26.9961C124.727 27.6276 124.632 28.1875 124.443 28.6758C124.255 29.1641 123.994 29.5938 123.662 29.9648C123.337 30.3294 122.952 30.6387 122.51 30.8926C122.067 31.14 121.592 31.3451 121.084 31.5078C120.583 31.6641 120.062 31.7812 119.521 31.8594C118.981 31.931 118.451 31.9701 117.93 31.9766V36.1367H113.379C113.379 35.3945 113.379 34.6719 113.379 33.9688C113.385 33.2656 113.389 32.569 113.389 31.8789C113.395 31.1823 113.398 30.4824 113.398 29.7793C113.405 29.0762 113.411 28.3503 113.418 27.6016C113.431 26.8073 113.434 26.013 113.428 25.2188C113.421 24.4245 113.438 23.6237 113.477 22.8164C114.31 22.569 115.143 22.3835 115.977 22.2598C116.81 22.1361 117.669 22.0742 118.555 22.0742C119.056 22.0742 119.557 22.1165 120.059 22.2012C120.56 22.2793 121.038 22.4062 121.494 22.582C121.956 22.7578 122.383 22.9792 122.773 23.2461C123.171 23.5065 123.512 23.819 123.799 24.1836C124.085 24.5482 124.31 24.9648 124.473 25.4336C124.642 25.9023 124.727 26.4232 124.727 26.9961ZM120.391 27.3281C120.391 26.9049 120.26 26.5762 120 26.3418C119.746 26.1009 119.414 25.9805 119.004 25.9805C118.867 25.9805 118.724 25.9935 118.574 26.0195C118.431 26.0391 118.294 26.0651 118.164 26.0977L118.047 28.9492C118.138 28.9622 118.226 28.9688 118.311 28.9688C118.395 28.9688 118.483 28.9688 118.574 28.9688C118.809 28.9688 119.033 28.9297 119.248 28.8516C119.469 28.7734 119.665 28.6628 119.834 28.5195C120.003 28.3698 120.137 28.1973 120.234 28.002C120.339 27.8001 120.391 27.5755 120.391 27.3281ZM136.924 22.25C136.631 24.5417 136.38 26.8236 136.172 29.0957C135.964 31.3613 135.765 33.6432 135.576 35.9414L131.572 36.2344L131.748 34.7305C131.618 34.8802 131.465 35.0104 131.289 35.1211C131.12 35.2318 130.938 35.3229 130.742 35.3945C130.547 35.4596 130.345 35.5085 130.137 35.541C129.928 35.5671 129.73 35.5768 129.541 35.5703C129.098 35.5638 128.682 35.4792 128.291 35.3164C127.9 35.1471 127.542 34.9258 127.217 34.6523C126.891 34.3724 126.598 34.0501 126.338 33.6855C126.077 33.3145 125.856 32.9271 125.674 32.5234C125.498 32.1133 125.361 31.6966 125.264 31.2734C125.173 30.8503 125.127 30.4401 125.127 30.043C125.127 29.457 125.137 28.8516 125.156 28.2266C125.182 27.5951 125.225 26.9635 125.283 26.332C125.342 25.7005 125.417 25.0755 125.508 24.457C125.605 23.8385 125.726 23.2461 125.869 22.6797C126.663 22.7188 127.461 22.7546 128.262 22.7871C129.062 22.8197 129.86 22.8294 130.654 22.8164C130.505 23.3828 130.355 23.9525 130.205 24.5254C130.062 25.0918 129.932 25.6647 129.814 26.2441C129.697 26.8171 129.603 27.3932 129.531 27.9727C129.46 28.5521 129.424 29.138 129.424 29.7305C129.424 29.8672 129.43 30.0625 129.443 30.3164C129.456 30.5703 129.489 30.821 129.541 31.0684C129.6 31.3158 129.684 31.5339 129.795 31.7227C129.912 31.9049 130.075 31.9961 130.283 31.9961C130.531 31.9961 130.752 31.8919 130.947 31.6836C131.143 31.4688 131.315 31.1823 131.465 30.8242C131.615 30.4661 131.742 30.0527 131.846 29.584C131.956 29.1152 132.048 28.627 132.119 28.1191C132.197 27.6048 132.259 27.0872 132.305 26.5664C132.35 26.0456 132.383 25.5573 132.402 25.1016C132.428 24.6393 132.445 24.2259 132.451 23.8613C132.464 23.4967 132.471 23.2135 132.471 23.0117C132.471 22.8815 132.467 22.7546 132.461 22.6309C132.454 22.5072 132.445 22.3802 132.432 22.25C132.855 22.263 133.275 22.2728 133.691 22.2793C134.108 22.2858 134.528 22.2891 134.951 22.2891C135.277 22.2891 135.602 22.2891 135.928 22.2891C136.26 22.2826 136.592 22.2695 136.924 22.25Z" fill="white"/>
</svg>
